<?xml version="1.0" encoding="UTF-8"?><svg id="Layer_1" xmlns="http://www.w3.org/2000/svg" viewBox="0 0 99.36 92.4"><defs><style>.cls-1{stroke-width:0px;}</style></defs><path class="cls-1" d="m49.19,61.89c3.23,0,5.72-.18,7.47-.53s3.2-1.1,4.37-2.25c.78-.77,1.36-1.73,1.75-2.88s.64-2.49.78-4.03c.13-1.54.19-3.52.19-5.95s-.07-4.29-.19-5.76c-.13-1.47-.37-2.75-.73-3.84s-.92-2.02-1.7-2.78c-1.16-1.15-2.59-1.95-4.27-2.4-1.68-.45-4.08-.67-7.18-.67s-5.58.18-7.23.53-3.06,1.1-4.22,2.25c-.78.77-1.36,1.73-1.75,2.88s-.65,2.51-.78,4.08c-.13,1.57-.19,3.5-.19,5.81,0,2.69.03,4.73.1,6.14s.28,2.69.63,3.84c.35,1.15.89,2.08,1.6,2.78,1.16,1.15,2.55,1.9,4.17,2.25,1.62.35,4.01.53,7.18.53m.49,18.32c-6.98,0-12.87-.58-17.66-1.73s-8.7-3.23-11.74-6.24c-1.75-1.73-3.15-3.84-4.22-6.33-1.07-2.49-1.83-5.36-2.28-8.59s-.68-6.96-.68-11.18.24-7.96.73-11.23c.49-3.26,1.24-6.12,2.28-8.59,1.03-2.46,2.43-4.56,4.17-6.28,2.65-2.62,6.53-4.59,11.64-5.9,5.11-1.31,11.03-1.97,17.75-1.97s12.66.66,17.8,1.97c5.14,1.31,9.04,3.28,11.69,5.9,1.75,1.73,3.14,3.82,4.17,6.28,1.03,2.46,1.78,5.33,2.23,8.59.45,3.26.68,7.01.68,11.23s-.23,7.96-.68,11.23c-.45,3.26-1.2,6.13-2.23,8.59-1.04,2.46-2.43,4.56-4.17,6.29-3.04,3.01-6.95,5.08-11.74,6.24-4.78,1.15-10.69,1.72-17.74,1.72"/></svg>